<svg xmlns="http://www.w3.org/2000/svg" xmlns:xlink="http://www.w3.org/1999/xlink" xmlns:lucid="lucid" width="1318.73" height="837.83"><g transform="translate(-258.0799207593168 -17.674737393688574)" lucid:page-tab-id="0_0"><path d="M0 0h1898.8v1360H0z" fill="#fff"/><g opacity=".5"><path d="M885.97 55.67a16 16 0 0 1 16-16h128a16 16 0 0 1 16 16v108a16 16 0 0 1-16 16h-128a16 16 0 0 1-16-16z" fill="#dfe3e8"/><path d="M894.7 41.42l2.33-.96 2.44-.6 2.5-.2 6.4.02m8.53 0h12.8m8.54 0h12.8m8.53 0h12.8m8.53 0h12.8m8.54 0h12.8m8.53 0h6.4l2.5.2 2.45.58 2.3.96m7 7l.97 2.3.58 2.45.2 2.5v6.48m0 8.65v12.95m0 8.64v12.95m0 8.65v12.95m0 8.64v12.96m0 8.63v6.48l-.2 2.5-.6 2.44-.95 2.32m-7 7l-2.3.95-2.46.58-2.5.2h-6.4m-8.53 0h-12.8m-8.53 0h-12.8m-8.53 0h-12.8m-8.53 0h-12.8m-8.53 0h-12.8m-8.53 0h-6.4l-2.5-.2-2.44-.6-2.32-.95m-6.98-7l-.97-2.3-.58-2.45-.2-2.5v-6.5m0-8.63V135.6m0-8.64V114m0-8.64V92.39m0-8.65V70.8m0-8.64v-6.48l.2-2.5.6-2.45.95-2.32" stroke="#000" stroke-width="4" fill="none"/><use xlink:href="#a" transform="matrix(1,0,0,1,893.971621010399,47.674737393688574) translate(27.365622032288712 68.83760683760684)"/></g><g opacity=".5"><path d="M885.97 275.34a16 16 0 0 1 16-16h128a16 16 0 0 1 16 16v93a16 16 0 0 1-16 16h-128a16 16 0 0 1-16-16z" fill="#dfe3e8"/><path d="M894.7 261.08l2.33-.96 2.44-.58 2.5-.2h6.4m8.53 0h12.8m8.54 0h12.8m8.53 0h12.8m8.53 0h12.8m8.54 0h12.8m8.53 0h6.4l2.5.2 2.45.58 2.3.96m7 7l.97 2.32.58 2.44.2 2.5v5.58m0 7.44v11.16m0 7.44v11.16m0 7.44v11.16m0 7.44v11.16m0 7.44v5.58l-.2 2.5-.6 2.44-.95 2.32m-7 7l-2.3.96-2.46.58-2.5.2h-6.4m-8.53 0h-12.8m-8.53 0h-12.8m-8.53 0h-12.8m-8.53 0h-12.8m-8.53 0h-12.8m-8.53 0h-6.4l-2.5-.2-2.44-.58-2.32-.96m-6.98-7l-.97-2.32-.58-2.44-.2-2.5v-5.58m0-7.44v-11.16m0-7.44v-11.16m0-7.44v-11.16m0-7.44v-11.16m0-7.44v-5.58l.2-2.5.6-2.44.95-2.32" stroke="#000" stroke-width="4" fill="none"/><use xlink:href="#b" transform="matrix(1,0,0,1,893.971621010399,267.3399127562791) translate(13.392592592592592 58.766666666666666)"/></g><path d="M965.97 254.34v-55.2" stroke="#000" stroke-width="6" fill="none"/><path d="M968.95 257.34H963v-3.08h5.95z" stroke="#000" stroke-width=".05"/><path d="M965.97 187.57l7.64 12.9h-15.26z" stroke="#000" stroke-width="6"/><path d="M280.08 713.5a16 16 0 0 1 16-16h128a16 16 0 0 1 16 16v104a16 16 0 0 1-16 16h-128a16 16 0 0 1-16-16z" stroke="#000" stroke-width="4" fill="#fff"/><use xlink:href="#c" transform="matrix(1,0,0,1,288.0799207593168,705.4999999999997) translate(22.95679012345679 66.22222222222223)"/><path d="M725.97 713.5a16 16 0 0 1 16-16h128a16 16 0 0 1 16 16v104a16 16 0 0 1-16 16h-128a16 16 0 0 1-16-16z" stroke="#000" stroke-width="4" fill="#fff"/><use xlink:href="#d" transform="matrix(1,0,0,1,733.9716210103988,705.4999999999997) translate(33.24074074074074 66.22222222222223)"/><path d="M1394.8 713.5a16 16 0 0 1 16-16h128a16 16 0 0 1 16 16v104a16 16 0 0 1-16 16h-128a16 16 0 0 1-16-16z" stroke="#000" stroke-width="4" fill="#fff"/><use xlink:href="#e" transform="matrix(1,0,0,1,1402.809171387022,705.4999999999997) translate(19.45679012345679 66.22222222222223)"/><path d="M503.03 713.5a16 16 0 0 1 16-16h128a16 16 0 0 1 16 16v104a16 16 0 0 1-16 16h-128a16 16 0 0 1-16-16z" stroke="#000" stroke-width="4" fill="#fff"/><use xlink:href="#f" transform="matrix(1,0,0,1,511.0257708848578,705.4999999999997) translate(31.425925925925924 66.22222222222223)"/><g opacity=".5"><path d="M1045.97 468.14a16 16 0 0 1 16-16h128a16 16 0 0 1 16 16v93a16 16 0 0 1-16 16h-128a16 16 0 0 1-16-16z" fill="#dfe3e8"/><path d="M1054.7 453.88l2.33-.96 2.44-.58 2.5-.2h6.4m8.54 0h12.8m8.54 0h12.8m8.53 0h12.8m8.54 0h12.8m8.54 0h12.8m8.53 0h6.4l2.5.2 2.45.58 2.3.96m7 7l.97 2.3.58 2.46.2 2.5v5.58m0 7.44v11.16m0 7.44v11.16m0 7.44v11.16m0 7.44v11.16m0 7.44v5.58l-.2 2.5-.6 2.44-.95 2.32m-7 7l-2.3.96-2.46.58-2.5.2h-6.4m-8.53 0h-12.8m-8.54 0h-12.8m-8.53 0h-12.8m-8.53 0h-12.8m-8.54 0h-12.8m-8.53 0h-6.4l-2.5-.2-2.44-.58-2.32-.97m-6.98-7l-.96-2.32-.6-2.44-.2-2.5v-5.58m0-7.44v-11.16m0-7.44v-11.16m0-7.44v-11.16m0-7.44v-11.16m0-7.44v-5.58l.2-2.5.6-2.44.96-2.32" stroke="#000" stroke-width="4" fill="none"/><use xlink:href="#g" transform="matrix(1,0,0,1,1053.9716210103988,460.1391101048372) translate(-0.7703703703703724 58.766666666666666)"/></g><g opacity=".5"><path d="M725.97 468.14a16 16 0 0 1 16-16h128a16 16 0 0 1 16 16v93a16 16 0 0 1-16 16h-128a16 16 0 0 1-16-16z" fill="#dfe3e8"/><path d="M734.7 453.88l2.33-.96 2.44-.58 2.5-.2h6.4m8.53 0h12.8m8.54 0h12.8m8.53 0h12.8m8.53 0h12.8m8.54 0h12.8m8.53 0h6.4l2.5.2 2.45.58 2.32.96m7 7l.95 2.3.57 2.46.2 2.5v5.58m0 7.44v11.16m0 7.44v11.16m0 7.44v11.16m0 7.44v11.16m0 7.44v5.58l-.2 2.5-.58 2.44-.97 2.32m-7 7l-2.3.96-2.45.58-2.5.2h-6.4m-8.54 0h-12.8m-8.53 0h-12.8m-8.53 0h-12.8m-8.53 0h-12.8m-8.53 0h-12.8m-8.53 0h-6.4l-2.5-.2-2.44-.58-2.32-.97m-6.98-7l-.97-2.32-.58-2.44-.2-2.5v-5.58m0-7.44v-11.16m0-7.44v-11.16m0-7.44v-11.16m0-7.44v-11.16m0-7.44v-5.58l.2-2.5.6-2.44.95-2.32" stroke="#000" stroke-width="4" fill="none"/><use xlink:href="#h" transform="matrix(1,0,0,1,733.971621010399,460.1391101048372) translate(18.696296296296303 58.766666666666666)"/></g><path d="M948.92 713.5a16 16 0 0 1 16-16h128a16 16 0 0 1 16 16v104a16 16 0 0 1-16 16h-128a16 16 0 0 1-16-16z" stroke="#000" stroke-width="4" fill="#fff"/><use xlink:href="#i" transform="matrix(1,0,0,1,956.9174711359399,705.4999999999997) translate(23.69135802469136 66.22222222222223)"/><path d="M1171.86 713.5a16 16 0 0 1 16-16h128a16 16 0 0 1 16 16v104a16 16 0 0 1-16 16h-128a16 16 0 0 1-16-16z" stroke="#000" stroke-width="4" fill="#fff"/><use xlink:href="#j" transform="matrix(1,0,0,1,1179.863321261481,705.4999999999997) translate(37.56172839506173 66.22222222222223)"/><path d="M861.4 447.83l39.9-48.05" stroke="#000" stroke-width="6" fill="none"/><path d="M863.75 449.67l-.38.47h-7.74l3.54-4.27z" stroke="#000" stroke-width=".05"/><path d="M908.68 390.88l-2.37 14.8-11.74-9.75z" stroke="#000" stroke-width="6"/><path d="M1070.53 447.83l-39.88-48.05" stroke="#000" stroke-width="6" fill="none"/><path d="M1076.3 450.14h-7.72l-.4-.47 4.6-3.8z" stroke="#000" stroke-width=".05"/><path d="M1023.26 390.88l14.12 5.05-11.75 9.76z" stroke="#000" stroke-width="6"/><path d="M647.23 693.26l89.82-101.07" stroke="#000" stroke-width="6" fill="none"/><path d="M649.5 695.18l-.42.48-1.98-.16h-5.84l3.8-4.28z" stroke="#000" stroke-width=".05"/><path d="M744.73 583.54l-2.87 14.73-11.4-10.15z" stroke="#000" stroke-width="6"/><path d="M426.75 693.34l461.02-499.02" stroke="#000" stroke-width="6" fill="none"/><path d="M428.98 695.3l-.7.75-1.38-.33-2.74-.22h-3.46l3.9-4.24z" stroke="#000" stroke-width=".05"/><path d="M895.62 185.82l-3.15 14.67-11.22-10.37z" stroke="#000" stroke-width="6"/><path d="M1391.5 705.6l-172.54-124.1" stroke="#000" stroke-width="6" fill="none"/><path d="M1395.2 704.6l-.43.73-1.1 2.6-.58 2.47-3.4-2.44 3.47-4.83z" stroke="#000" stroke-width=".05"/><path d="M1209.57 574.76l14.94 1.34-8.9 12.4z" stroke="#000" stroke-width="6"/><path d="M805.97 692.5v-95.9" stroke="#000" stroke-width="6" fill="none"/><path d="M808.95 695.5H803v-3.08h5.95z" stroke="#000" stroke-width=".05"/><path d="M805.97 585.03l7.64 12.9h-15.26z" stroke="#000" stroke-width="6"/><path d="M964.7 693.26L874.9 592.2" stroke="#000" stroke-width="6" fill="none"/><path d="M970.7 695.5h-5.86l-1.98.15-.42-.47 4.45-3.96z" stroke="#000" stroke-width=".05"/><path d="M867.2 583.54l14.3 4.58-11.42 10.15z" stroke="#000" stroke-width="6"/><path d="M1057.08 692.7l37.64-97.27" stroke="#000" stroke-width="6" fill="none"/><path d="M1059.88 693.7l-.7 1.8h-6.37l1.54-3.94z" stroke="#000" stroke-width=".05"/><path d="M1098.9 584.63l2.45 14.8-14.24-5.5z" stroke="#000" stroke-width="6"/><path d="M1167.25 717.9L903.2 569.34" stroke="#000" stroke-width="6" fill="none"/><path d="M1169.86 715.95v6.83l-4.14-2.33 2.92-5.2z" stroke="#000" stroke-width=".05"/><path d="M893.1 563.66l15-.32-7.48 13.3z" stroke="#000" stroke-width="6"/><path d="M1215.4 692.82l-49.23-98.07" stroke="#000" stroke-width="6" fill="none"/><path d="M1220.06 695.5h-6.65l-.7-1.42 5.3-2.66z" stroke="#000" stroke-width=".05"/><path d="M1160.98 584.4l12.62 8.12-13.65 6.85z" stroke="#000" stroke-width="6"/><defs><path d="M24-248c93 1 206-16 204 79-1 75-69 88-152 82V0H24v-248zm52 121c47 0 100 7 100-41 0-47-54-39-100-39v80" id="k"/><path d="M25-224v-37h50v37H25zM25 0v-190h50V0H25" id="l"/><path d="M185-48c-13 30-37 53-82 52C43 2 14-33 14-96s30-98 90-98c62 0 83 45 84 108H66c0 31 8 55 39 56 18 0 30-7 34-22zm-45-69c5-46-57-63-70-21-2 6-4 13-4 21h74" id="m"/><path d="M190-63c-7 42-38 67-86 67-59 0-84-38-90-98-12-110 154-137 174-36l-49 2c-2-19-15-32-35-32-30 0-35 28-38 64-6 74 65 87 74 30" id="n"/><g id="a"><use transform="matrix(0.09496676163342826,0,0,0.09496676163342826,0,0)" xlink:href="#k"/><use transform="matrix(0.09496676163342826,0,0,0.09496676163342826,22.792022792022784,0)" xlink:href="#l"/><use transform="matrix(0.09496676163342826,0,0,0.09496676163342826,32.28869895536561,0)" xlink:href="#m"/><use transform="matrix(0.09496676163342826,0,0,0.09496676163342826,51.28205128205126,0)" xlink:href="#n"/><use transform="matrix(0.09496676163342826,0,0,0.09496676163342826,70.27540360873692,0)" xlink:href="#m"/></g><path d="M24 0v-248h52v208h133V0H24" id="o"/><path d="M135-194c87-1 58 113 63 194h-50c-7-57 23-157-34-157-59 0-34 97-39 157H25l-1-190h47c2 12-1 28 3 38 12-26 28-41 61-42" id="p"/><path d="M133-34C117-15 103 5 69 4 32 3 11-16 11-54c-1-60 55-63 116-61 1-26-3-47-28-47-18 1-26 9-28 27l-52-2c7-38 36-58 82-57s74 22 75 68l1 82c-1 14 12 18 25 15v27c-30 8-71 5-69-32zm-48 3c29 0 43-24 42-57-32 0-66-3-65 30 0 17 8 27 23 27" id="q"/><path d="M25 0v-261h50V0H25" id="r"/><g id="b"><use transform="matrix(0.05925925925925927,0,0,0.05925925925925927,0,0)" xlink:href="#o"/><use transform="matrix(0.05925925925925927,0,0,0.05925925925925927,12.97777777777778,0)" xlink:href="#l"/><use transform="matrix(0.05925925925925927,0,0,0.05925925925925927,18.903703703703705,0)" xlink:href="#p"/><use transform="matrix(0.05925925925925927,0,0,0.05925925925925927,31.881481481481487,0)" xlink:href="#m"/><use transform="matrix(0.05925925925925927,0,0,0.05925925925925927,43.73333333333334,0)" xlink:href="#q"/><use transform="matrix(0.05925925925925927,0,0,0.05925925925925927,55.585185185185196,0)" xlink:href="#r"/><use transform="matrix(0.05925925925925927,0,0,0.05925925925925927,61.51111111111112,0)" xlink:href="#k"/><use transform="matrix(0.05925925925925927,0,0,0.05925925925925927,75.73333333333335,0)" xlink:href="#l"/><use transform="matrix(0.05925925925925927,0,0,0.05925925925925927,81.65925925925927,0)" xlink:href="#m"/><use transform="matrix(0.05925925925925927,0,0,0.05925925925925927,93.51111111111112,0)" xlink:href="#n"/><use transform="matrix(0.05925925925925927,0,0,0.05925925925925927,105.36296296296297,0)" xlink:href="#m"/></g><path d="M195 0l-88-114-31 24V0H24v-248h52v113l112-113h60L142-143 257 0h-62" id="s"/><path d="M195-6C206 82 75 100 31 46c-4-6-6-13-8-21l49-6c3 16 16 24 34 25 40 0 42-37 40-79-11 22-30 35-61 35-53 0-70-43-70-97 0-56 18-96 73-97 30 0 46 14 59 34l2-30h47zm-90-29c32 0 41-27 41-63 0-35-9-62-40-62-32 0-39 29-40 63 0 36 9 62 39 62" id="t"/><path d="M114-157C55-157 80-60 75 0H25v-261h50l-1 109c12-26 28-41 61-42 86-1 58 113 63 194h-50c-7-57 23-157-34-157" id="u"/><path d="M115-3C79 11 28 4 28-45v-112H4v-33h27l15-45h31v45h36v33H77v99c-1 23 16 31 38 25v30" id="v"/><g id="c"><use transform="matrix(0.08641975308641976,0,0,0.08641975308641976,0,0)" xlink:href="#s"/><use transform="matrix(0.08641975308641976,0,0,0.08641975308641976,22.38271604938272,0)" xlink:href="#p"/><use transform="matrix(0.08641975308641976,0,0,0.08641975308641976,41.308641975308646,0)" xlink:href="#l"/><use transform="matrix(0.08641975308641976,0,0,0.08641975308641976,49.95061728395062,0)" xlink:href="#t"/><use transform="matrix(0.08641975308641976,0,0,0.08641975308641976,68.87654320987654,0)" xlink:href="#u"/><use transform="matrix(0.08641975308641976,0,0,0.08641975308641976,87.80246913580247,0)" xlink:href="#v"/></g><path d="M240-174c0 40-23 61-54 70L253 0h-59l-57-94H76V0H24v-248c93 4 217-23 216 74zM76-134c48-2 112 12 112-38 0-48-66-32-112-35v73" id="w"/><path d="M110-194c64 0 96 36 96 99 0 64-35 99-97 99-61 0-95-36-95-99 0-62 34-99 96-99zm-1 164c35 0 45-28 45-65 0-40-10-65-43-65-34 0-45 26-45 65 0 36 10 65 43 65" id="x"/><path d="M147 0L96-86 75-71V0H25v-261h50v150l67-79h53l-66 74L201 0h-54" id="y"/><g id="d"><use transform="matrix(0.08641975308641976,0,0,0.08641975308641976,0,0)" xlink:href="#w"/><use transform="matrix(0.08641975308641976,0,0,0.08641975308641976,22.38271604938272,0)" xlink:href="#x"/><use transform="matrix(0.08641975308641976,0,0,0.08641975308641976,41.308641975308646,0)" xlink:href="#x"/><use transform="matrix(0.08641975308641976,0,0,0.08641975308641976,60.23456790123458,0)" xlink:href="#y"/></g><path d="M182-130c37 4 62 22 62 59C244 23 116-4 24 0v-248c84 5 203-23 205 63 0 31-19 50-47 55zM76-148c40-3 101 13 101-30 0-44-60-28-101-31v61zm0 110c48-3 116 14 116-37 0-48-69-32-116-35v72" id="z"/><path d="M137-138c1-29-70-34-71-4 15 46 118 7 119 86 1 83-164 76-172 9l43-7c4 19 20 25 44 25 33 8 57-30 24-41C81-84 22-81 20-136c-2-80 154-74 161-7" id="A"/><path d="M135-194c53 0 70 44 70 98 0 56-19 98-73 100-31 1-45-17-59-34 3 33 2 69 2 105H25l-1-265h48c2 10 0 23 3 31 11-24 29-35 60-35zM114-30c33 0 39-31 40-66 0-38-9-64-40-64-56 0-55 130 0 130" id="B"/><g id="e"><use transform="matrix(0.08641975308641976,0,0,0.08641975308641976,0,0)" xlink:href="#z"/><use transform="matrix(0.08641975308641976,0,0,0.08641975308641976,22.38271604938272,0)" xlink:href="#l"/><use transform="matrix(0.08641975308641976,0,0,0.08641975308641976,31.024691358024693,0)" xlink:href="#A"/><use transform="matrix(0.08641975308641976,0,0,0.08641975308641976,48.308641975308646,0)" xlink:href="#u"/><use transform="matrix(0.08641975308641976,0,0,0.08641975308641976,67.23456790123457,0)" xlink:href="#x"/><use transform="matrix(0.08641975308641976,0,0,0.08641975308641976,86.1604938271605,0)" xlink:href="#B"/></g><path d="M231 0h-52l-39-155L100 0H48L-1-190h46L77-45c9-52 24-97 36-145h53l37 145 32-145h46" id="C"/><g id="f"><use transform="matrix(0.08641975308641976,0,0,0.08641975308641976,0,0)" xlink:href="#k"/><use transform="matrix(0.08641975308641976,0,0,0.08641975308641976,20.740740740740744,0)" xlink:href="#q"/><use transform="matrix(0.08641975308641976,0,0,0.08641975308641976,38.0246913580247,0)" xlink:href="#C"/><use transform="matrix(0.08641975308641976,0,0,0.08641975308641976,62.22222222222223,0)" xlink:href="#p"/></g><path d="M24-248c120-7 223 5 221 122C244-46 201 0 124 0H24v-248zM76-40c74 7 117-18 117-86 0-67-45-88-117-82v168" id="D"/><g id="g"><use transform="matrix(0.05925925925925927,0,0,0.05925925925925927,0,0)" xlink:href="#D"/><use transform="matrix(0.05925925925925927,0,0,0.05925925925925927,15.34814814814815,0)" xlink:href="#l"/><use transform="matrix(0.05925925925925927,0,0,0.05925925925925927,21.274074074074075,0)" xlink:href="#q"/><use transform="matrix(0.05925925925925927,0,0,0.05925925925925927,33.12592592592593,0)" xlink:href="#t"/><use transform="matrix(0.05925925925925927,0,0,0.05925925925925927,46.10370370370371,0)" xlink:href="#x"/><use transform="matrix(0.05925925925925927,0,0,0.05925925925925927,59.08148148148149,0)" xlink:href="#p"/><use transform="matrix(0.05925925925925927,0,0,0.05925925925925927,72.05925925925926,0)" xlink:href="#q"/><use transform="matrix(0.05925925925925927,0,0,0.05925925925925927,83.91111111111111,0)" xlink:href="#r"/><use transform="matrix(0.05925925925925927,0,0,0.05925925925925927,89.83703703703704,0)" xlink:href="#k"/><use transform="matrix(0.05925925925925927,0,0,0.05925925925925927,104.05925925925926,0)" xlink:href="#l"/><use transform="matrix(0.05925925925925927,0,0,0.05925925925925927,109.98518518518519,0)" xlink:href="#m"/><use transform="matrix(0.05925925925925927,0,0,0.05925925925925927,121.83703703703704,0)" xlink:href="#n"/><use transform="matrix(0.05925925925925927,0,0,0.05925925925925927,133.6888888888889,0)" xlink:href="#m"/></g><path d="M199 0l-22-63H83L61 0H9l90-248h61L250 0h-51zm-33-102l-36-108c-10 38-24 72-36 108h72" id="E"/><path d="M144 0l-44-69L55 0H2l70-98-66-92h53l41 62 40-62h54l-67 91 71 99h-54" id="F"/><g id="h"><use transform="matrix(0.05925925925925927,0,0,0.05925925925925927,0,0)" xlink:href="#E"/><use transform="matrix(0.05925925925925927,0,0,0.05925925925925927,15.34814814814815,0)" xlink:href="#F"/><use transform="matrix(0.05925925925925927,0,0,0.05925925925925927,27.200000000000003,0)" xlink:href="#l"/><use transform="matrix(0.05925925925925927,0,0,0.05925925925925927,33.12592592592593,0)" xlink:href="#q"/><use transform="matrix(0.05925925925925927,0,0,0.05925925925925927,44.97777777777778,0)" xlink:href="#r"/><use transform="matrix(0.05925925925925927,0,0,0.05925925925925927,50.903703703703705,0)" xlink:href="#k"/><use transform="matrix(0.05925925925925927,0,0,0.05925925925925927,65.12592592592593,0)" xlink:href="#l"/><use transform="matrix(0.05925925925925927,0,0,0.05925925925925927,71.05185185185185,0)" xlink:href="#m"/><use transform="matrix(0.05925925925925927,0,0,0.05925925925925927,82.9037037037037,0)" xlink:href="#n"/><use transform="matrix(0.05925925925925927,0,0,0.05925925925925927,94.75555555555555,0)" xlink:href="#m"/></g><path d="M140-251c80 0 125 45 125 126 0 70-33 111-92 124 6 28 34 38 68 31l-1 36C177 83 129 55 120 2 51-6 15-50 15-125c0-81 44-126 125-126zm-1 214c52 0 73-35 73-88 0-50-21-86-72-86-52 0-73 35-73 86s22 88 72 88" id="G"/><path d="M85 4C-2 5 27-109 22-190h50c7 57-23 150 33 157 60-5 35-97 40-157h50l1 190h-47c-2-12 1-28-3-38-12 25-28 42-61 42" id="H"/><g id="i"><use transform="matrix(0.08641975308641976,0,0,0.08641975308641976,0,0)" xlink:href="#G"/><use transform="matrix(0.08641975308641976,0,0,0.08641975308641976,24.19753086419753,0)" xlink:href="#H"/><use transform="matrix(0.08641975308641976,0,0,0.08641975308641976,43.123456790123456,0)" xlink:href="#m"/><use transform="matrix(0.08641975308641976,0,0,0.08641975308641976,60.407407407407405,0)" xlink:href="#m"/><use transform="matrix(0.08641975308641976,0,0,0.08641975308641976,77.69135802469135,0)" xlink:href="#p"/></g><g id="j"><use transform="matrix(0.08641975308641976,0,0,0.08641975308641976,0,0)" xlink:href="#s"/><use transform="matrix(0.08641975308641976,0,0,0.08641975308641976,22.38271604938272,0)" xlink:href="#l"/><use transform="matrix(0.08641975308641976,0,0,0.08641975308641976,31.024691358024693,0)" xlink:href="#p"/><use transform="matrix(0.08641975308641976,0,0,0.08641975308641976,49.95061728395062,0)" xlink:href="#t"/></g></defs></g></svg>